<svg width="16" height="16" viewBox="0 0 16 16" fill="none" xmlns="http://www.w3.org/2000/svg">
<g clip-path="url(#clip0_83_32)">
<path fill-rule="evenodd" clip-rule="evenodd" d="M7.99967 0.833252C4.04163 0.833252 0.833008 4.04188 0.833008 7.99992C0.833008 11.958 4.04163 15.1666 7.99967 15.1666C11.9577 15.1666 15.1663 11.958 15.1663 7.99992C15.1663 4.04188 11.9577 0.833252 7.99967 0.833252ZM8.49967 3.99992C8.49967 3.72378 8.27581 3.49992 7.99967 3.49992C7.72354 3.49992 7.49967 3.72378 7.49967 3.99992V7.99992C7.49967 8.27605 7.72354 8.49992 7.99967 8.49992H11.9997C12.2758 8.49992 12.4997 8.27605 12.4997 7.99992C12.4997 7.72378 12.2758 7.49992 11.9997 7.49992H8.49967V3.99992Z" fill="#9D9AAD"/>
</g>
<defs>
<clipPath id="clip0_83_32">
<rect width="16" height="16" fill="white"/>
</clipPath>
</defs>
</svg>
