<svg width="40" height="40" viewBox="0 0 40 40" fill="none" xmlns="http://www.w3.org/2000/svg">
<rect width="40" height="40" rx="8" fill="#FEF4EE"/>
<path fill-rule="evenodd" clip-rule="evenodd" d="M20 9.25C14.0629 9.25 9.25 14.0629 9.25 20C9.25 25.9371 14.0629 30.75 20 30.75C25.9371 30.75 30.75 25.9371 30.75 20C30.75 14.0629 25.9371 9.25 20 9.25ZM20.75 14C20.75 13.5858 20.4142 13.25 20 13.25C19.5858 13.25 19.25 13.5858 19.25 14V20C19.25 20.4142 19.5858 20.75 20 20.75H26C26.4142 20.75 26.75 20.4142 26.75 20C26.75 19.5858 26.4142 19.25 26 19.25H20.75V14Z" fill="#90231C"/>
</svg>
