<svg width="132" height="56" viewBox="0 0 132 56" fill="none" xmlns="http://www.w3.org/2000/svg">
<path d="M38.9011 4.49977L38.795 4.23466L38.5465 4.09217C29.0458 -1.36902 12.132 -1.3624 3.05871 4.10211L2.82674 4.24129L2.72401 4.49314C2.59146 4.81127 -0.510289 12.4033 0.072945 22.5601C0.613099 31.9515 4.57313 45.3228 20.3569 55.7018L20.8109 56L21.2649 55.7018C36.9095 45.4388 40.8761 32.0609 41.4494 22.6463C42.0691 12.4629 39.0336 4.82121 38.9011 4.49977ZM39.7892 22.6132C38.9806 35.5636 32.5982 46.1248 20.8076 54.0183C8.91093 46.0353 2.49204 35.4443 1.72655 22.5336C1.20627 13.7387 3.632 6.76311 4.15227 5.37793C12.7616 0.367423 28.446 0.370737 37.4629 5.38456C37.9832 6.80619 40.336 13.8149 39.7892 22.6132ZM19.1242 4.93388C22.8721 5.04324 24.5191 5.2984 26.4643 6.07384C28.2604 6.79294 29.3109 8.50619 29.7417 9.35784C30.2487 9.26506 30.8187 9.19878 31.4251 9.19878C33.082 9.19878 34.56 9.67597 35.8192 10.6171C36.5251 11.144 37.0354 11.7537 37.39 12.3933C36.926 9.73562 36.3329 7.72081 35.9783 6.65376C31.9951 4.61575 26.5074 3.45923 20.7347 3.45923C19.0247 3.45923 17.3546 3.55864 15.744 3.74753C15.817 3.84363 15.8832 3.94636 15.9329 4.05572C16.2345 4.33408 17.2054 4.87423 19.1208 4.93057L19.1242 4.93388ZM9.85869 8.55921L10.0012 8.41009C10.77 7.60814 11.7641 7.05804 12.7119 6.68027C12.354 5.61322 12.6423 4.6754 12.8511 4.20484C10.1105 4.74499 7.64505 5.56682 5.63355 6.63719C4.89457 8.78786 3.07527 14.9847 3.55247 22.5668C3.64857 24.0779 3.8242 25.5592 4.08268 27.004C4.68248 25.4962 5.31542 23.2826 5.77605 20.0814C6.94914 11.9161 8.03608 10.4514 9.85537 8.55921H9.85869ZM28.3001 22.0697C28.3001 17.8512 31.5941 16.7278 33.2841 16.4296C32.744 16.2108 32.0647 16.0518 31.2826 16.0518C30.3879 16.0518 29.1054 16.2705 28.0814 17.3143C26.958 18.4576 26.3848 20.383 26.4278 22.8882C26.4941 26.825 28.1079 29.6749 31.2296 31.3584C33.1715 32.4055 35.1465 32.7005 35.912 32.78C36.3329 31.587 36.6974 30.3675 36.9956 29.1182C33.0422 29.4032 28.3001 27.2326 28.3001 22.0697ZM24.7709 22.9147C24.6649 16.5058 28.1278 14.3949 31.2859 14.3949C33.6222 14.3949 35.7927 15.5547 36.2169 16.983C36.2169 16.983 37.3204 13.8083 34.8251 11.9426C33.7149 11.1109 32.5087 10.8557 31.4251 10.8557C30.0764 10.8557 28.9198 11.2534 28.3764 11.4456C27.1768 11.8664 26.1163 12.5226 24.92 12.5226C24.8803 12.5226 24.8405 12.5226 24.8007 12.5226C23.1737 12.4629 20.9434 11.6046 21.6526 9.29488C21.6526 9.29488 23.3692 11.1639 25.7485 11.1639C25.9208 11.1639 26.0931 11.1539 26.2721 11.1341C27.8462 10.9518 28.0317 10.7662 28.4261 10.4514C28.4261 10.4514 27.5612 8.29742 25.8545 7.61808C24.1479 6.93543 22.7296 6.70015 19.0811 6.59411C15.4325 6.48807 14.3821 4.88749 14.4351 4.75825C14.4351 4.75825 13.3316 6.64713 16.0092 7.56837C16.0092 7.56837 12.8212 7.87656 11.2041 9.5633C9.66648 11.1672 8.61931 12.0255 7.42302 20.3266C6.70723 25.304 5.57059 28.1075 4.6626 29.6451C6.48189 36.7533 10.3856 42.9866 16.3405 48.2821C11.9928 42.3967 6.97565 31.9283 14.5875 20.8535C14.5875 20.8535 5.51425 40.3156 24.1313 49.2696C26.6731 47.1454 28.8734 44.8589 30.7226 42.4133C27.1105 40.2924 15.5585 32.2829 21.3875 19.359C21.3875 19.359 17.6992 33.7543 32.5452 39.7689C33.6255 38.0457 34.5434 36.2529 35.3056 34.3872C32.6545 34.0227 24.9234 32.1702 24.7709 22.928V22.9147ZM33.4995 18.683C28.9497 18.229 28.5387 25.0356 32.6611 26.6361C34.9709 27.5342 36.4853 27.5143 37.3767 27.3254C37.6617 25.8011 37.8605 24.2403 37.9666 22.6364C38.0859 20.8336 38.0759 19.1071 37.9832 17.4933C37.7644 19.3457 37.3635 20.6249 37.3635 20.6249C37.3635 20.6249 35.8689 18.9182 33.5062 18.683H33.4995Z" fill="white"/>
<path d="M50.2774 8.44971H54.6417C54.9831 8.44971 55.1521 8.6618 55.1521 9.08264C55.1521 10.776 55.1355 12.1214 55.1057 13.1255C55.1355 14.9316 55.1521 17.0358 55.1521 19.445V20.6678C55.215 20.7805 55.2912 20.8368 55.384 20.8368C56.3749 20.8368 56.8686 21.0191 56.8686 21.3836V23.3619C56.8686 23.8391 56.6367 24.0777 56.1727 24.0777H50.6486C50.0919 24.0777 49.8135 23.9385 49.8135 23.6569V21.4664C49.8135 21.0721 50.1548 20.8766 50.8342 20.8766C51.2981 20.8501 51.53 20.7639 51.53 20.6247C51.5599 18.7491 51.5765 17.3871 51.5765 16.5388V12.2407C51.5765 11.8762 51.4372 11.6939 51.1589 11.6939C50.2906 11.6442 49.8598 11.5183 49.8598 11.3162C49.8439 11.2895 49.8317 11.2571 49.8238 11.2185C49.817 11.1851 49.8135 11.1471 49.8135 11.1041V8.87057C49.8764 8.58888 50.0288 8.44971 50.2774 8.44971Z" fill="white"/>
<path d="M56.123 8.44971H61.3224C61.6637 8.44971 62.2669 8.90038 63.1317 9.79844C63.4863 10.0437 63.705 10.2955 63.7812 10.5573C63.7515 12.7676 63.7349 14.4676 63.7349 15.654V16.4957C63.7349 16.8337 63.1483 17.4501 61.9719 18.3481C61.8029 18.5735 61.4781 18.6861 60.9977 18.6861H56.4013C55.8745 18.6861 55.6127 18.5304 55.6127 18.2222V16.0748C55.6127 15.6242 55.7684 15.4021 56.0766 15.4021H59.745C59.9836 15.4021 60.1228 15.3458 60.1626 15.2331V11.906C60.1626 11.8782 60.1363 11.8448 60.0845 11.8058C60.0562 11.7845 60.0202 11.7616 59.977 11.737H56.355C55.8612 11.737 55.6127 11.5548 55.6127 11.1903V9.12572C55.6127 8.67505 55.7817 8.45302 56.123 8.45302V8.44971Z" fill="white"/>
<path d="M64.8284 8.44971H69.1927C69.5009 8.50604 69.6566 8.64523 69.6566 8.87057C69.6566 9.12904 69.6732 10.1961 69.7031 12.0717C69.7031 12.1026 69.7008 12.5169 69.6964 13.3144C69.6888 14.6545 69.6753 17.077 69.6566 20.5816C69.6566 20.7772 69.8886 20.8766 70.3526 20.8766C71.065 20.8766 71.4196 21.1152 71.4196 21.5924C71.4196 21.9237 71.403 22.1889 71.3732 22.3943C71.403 22.6329 71.4196 22.9411 71.4196 23.3222C71.4196 23.8292 71.1578 24.081 70.6309 24.081H65.1531C64.6263 24.081 64.3645 23.8855 64.3645 23.4912V21.4697C64.3645 21.0754 64.7191 20.8799 65.4315 20.8799C65.8656 20.8799 66.081 20.7672 66.081 20.5419V12.075C66.081 11.7934 65.8789 11.6542 65.478 11.6542C64.7357 11.6542 64.3645 11.4587 64.3645 11.0643V8.87389C64.4274 8.5922 64.5798 8.45302 64.8284 8.45302V8.44971Z" fill="white"/>
<path d="M70.7701 8.44971H75.8304C76.2081 8.44971 76.8443 8.91365 77.7325 9.84152C78.1036 10.1099 78.2892 10.332 78.2892 10.5142V16.5818C78.2892 16.8271 77.6065 17.4865 76.2479 18.5602C76.102 18.6431 75.8701 18.6861 75.552 18.6861H70.9093C70.4155 18.6861 70.167 18.5039 70.167 18.1393V16.0748C70.167 15.6242 70.336 15.4021 70.6773 15.4021H74.2993C74.5379 15.4021 74.6771 15.3458 74.7169 15.2331V11.9889C74.7169 11.8199 74.6241 11.737 74.4385 11.737H70.9093C70.4155 11.737 70.167 11.5415 70.167 11.1472V9.12572C70.167 8.67505 70.3692 8.45302 70.7701 8.45302V8.44971Z" fill="white"/>
<path d="M71.8869 19.1501H75.0881C75.4658 19.1501 75.9297 19.5709 76.4799 20.4126C76.6124 20.7208 76.967 20.8766 77.5469 20.8766C78.2593 20.8766 78.6139 21.0323 78.6139 21.3405V21.7183L78.6603 23.4879C78.6603 23.8822 78.3654 24.0777 77.7788 24.0777H75.6911C75.1344 24.0777 74.7765 23.8955 74.6241 23.5309C72.5662 20.913 71.529 19.551 71.5157 19.445V19.3621C71.592 19.223 71.7178 19.1501 71.8869 19.1501Z" fill="white"/>
<path d="M85.7519 8.44971H82.2724C81.8947 8.44971 81.5831 8.57563 81.3445 8.82749C80.2013 9.73879 79.628 10.3717 79.628 10.723C79.628 10.7495 79.6446 10.7926 79.6743 10.8489C79.6446 11.4322 79.628 11.9093 79.628 12.2805V15.1436C79.628 15.3425 79.6446 15.6507 79.6743 16.0715C79.6446 16.0715 79.628 16.0881 79.628 16.1146L79.6743 16.3665V21.927C79.6743 22.1756 80.1052 22.6395 80.9734 23.3189C81.3578 23.8259 81.825 24.0777 82.3652 24.0777H85.3808C85.9375 24.0777 86.2158 23.8955 86.2158 23.5309V21.3405C86.2158 20.976 85.921 20.7937 85.3344 20.7937H83.5251C83.3395 20.7937 83.2467 20.7109 83.2467 20.5419V12.244C83.2467 11.906 83.3561 11.737 83.5714 11.737H85.4736C85.9673 11.737 86.2158 11.5813 86.2158 11.2731V8.95673C86.1861 8.61872 86.0303 8.44971 85.7519 8.44971Z" fill="white"/>
<path d="M92.3399 9.5035C91.6506 8.80097 91.1568 8.44971 90.8552 8.44971V8.45302H87.0941C86.8157 8.45302 86.6765 8.83081 86.6765 9.58967V10.0536C86.6765 10.385 86.6931 10.7197 86.7229 11.0643C86.7229 11.5117 86.9714 11.737 87.4652 11.737H89.3673C89.5529 11.737 89.6457 11.8199 89.6457 11.9889V20.5419C89.6457 20.7109 89.5529 20.7937 89.3673 20.7937H87.558C87.4254 20.7937 87.2564 20.8103 87.0476 20.8368C86.7991 20.8368 86.6765 21.2046 86.6765 21.9337V23.3653C86.6765 23.8424 86.9383 24.081 87.4652 24.081H90.9016L91.1336 24.038C92.5552 22.8847 93.2677 22.1988 93.2677 21.9734V11.568L93.2213 11.1472C93.24 11.1472 93.2535 11.1147 93.261 11.0489C93.2654 11.0096 93.2677 10.9585 93.2677 10.8953V10.6004C93.2677 10.3253 92.9595 9.96081 92.3399 9.5035Z" fill="white"/>
<path d="M123.791 25.1283H120.54L120.543 25.1316C120.411 25.1316 120.288 25.1581 120.172 25.2145C118.751 26.3279 118.038 26.9907 118.038 27.1928C118.038 27.6369 118.055 28.0279 118.085 28.3725C118.055 29.539 118.038 30.6459 118.038 31.6996V32.4585C118.038 32.6971 118.515 33.1743 119.476 33.8901C119.824 34.3374 120.212 34.5628 120.636 34.5628H122.956L123.42 34.6059C123.42 34.576 123.513 34.5628 123.698 34.5628C124.132 34.5628 124.348 34.3408 124.348 33.8901V31.9946C124.348 31.5472 124.192 31.3219 123.884 31.3219H122.214C121.842 31.3219 121.657 31.2225 121.657 31.0269V28.7106C121.657 28.5548 121.72 28.4587 121.842 28.4156H123.698C124.132 28.4156 124.348 28.1936 124.348 27.7429V25.6353C124.348 25.2973 124.162 25.1283 123.791 25.1283Z" fill="white"/>
<path d="M120.954 35.8287H118.542V35.8253C118.201 35.8253 118.032 36.0076 118.032 36.3721V38.3107C118.032 38.831 118.462 39.3778 119.331 39.9544C119.761 40.4912 120.258 40.7563 120.815 40.7563H123.692C124.126 40.7563 124.341 40.5343 124.341 40.0836V38.1881C124.341 37.7109 124.126 37.4723 123.692 37.4723H121.789C121.657 37.4723 121.581 37.2205 121.557 36.7135C121.557 36.1236 121.355 35.8287 120.954 35.8287Z" fill="white"/>
<path d="M128.662 25.1283H125.319L125.322 25.125C125.044 25.125 124.888 25.294 124.858 25.632V27.9484C124.858 28.2566 125.107 28.4123 125.6 28.4123H127.41C127.503 28.4554 127.549 28.4952 127.549 28.5382C127.612 29.549 127.811 30.056 128.152 30.056C128.28 30.0414 128.398 30.0307 128.505 30.0237C128.616 30.0163 128.715 30.0129 128.802 30.0129H130.054C130.21 30.0129 130.442 30.0295 130.75 30.056C131.005 30.056 131.144 29.8041 131.168 29.2971V27.5706C131.168 27.332 131.138 27.1497 131.075 27.0238C129.922 25.7612 129.12 25.1283 128.662 25.1283Z" fill="white"/>
<path d="M128.755 31.3185H125.319L125.322 31.3152C125.044 31.3152 124.888 31.4842 124.858 31.8223V34.1386C124.858 34.4203 125.09 34.5595 125.554 34.5595H127.41C127.503 34.6025 127.549 34.6423 127.549 34.6854V37.3398C127.503 37.4226 127.456 37.4657 127.41 37.4657H125.693C125.136 37.4657 124.858 37.6347 124.858 37.9727V40.246C124.858 40.584 125.107 40.753 125.6 40.753H126.296C126.614 40.753 126.86 40.7398 127.039 40.7099C127.217 40.7398 127.463 40.753 127.781 40.753H128.616C128.994 40.753 129.534 40.3753 130.24 39.6164C130.859 39.2585 131.168 38.8244 131.168 38.3107V33.6349C131.168 33.214 130.826 32.7634 130.147 32.2862C129.491 31.6433 129.027 31.3185 128.755 31.3185Z" fill="white"/>
<path d="M54.1608 28.8763C55.9867 29.032 56.898 29.201 56.898 29.3833C57.0206 29.5722 57.0836 29.7412 57.0836 29.8903V29.9731C57.0836 30.1289 56.2485 32.4022 54.5784 36.7963C54.5389 36.9247 54.5077 37.0315 54.4851 37.1167C54.4545 37.2315 54.4392 37.3069 54.4392 37.3431C54.4392 37.4491 54.7639 37.5618 55.4134 37.6811C55.5062 37.7872 55.5526 37.8832 55.5526 37.976V40.3355C55.5526 40.6172 55.2743 40.7563 54.7175 40.7563H49.8429C49.3491 40.7563 49.1006 40.6172 49.1006 40.3355V38.0191C49.1006 37.7308 49.5015 37.5618 50.3068 37.5121C50.6382 37.5121 50.8702 37.1476 51.0027 36.4152C51.5594 34.9903 52.4575 32.5612 53.6936 29.1281C53.8857 28.9591 54.0415 28.8763 54.1575 28.8763H54.1608Z" fill="white"/>
<path d="M53.0473 25.1283H58.9891C59.5458 25.1283 59.8242 25.2675 59.8242 25.5492L64.1885 37.3862C64.1885 37.469 64.606 37.5552 65.4411 37.638C65.6565 37.7772 65.7658 37.9462 65.7658 38.145C65.736 38.9039 65.7194 39.507 65.7194 39.9577V40.4216C65.7194 40.5774 65.6267 40.6901 65.4411 40.7596H59.7777C59.4364 40.7596 59.2674 40.6337 59.2674 40.3819V38.0224C59.2674 37.7474 59.6087 37.5817 60.2881 37.5154L60.3809 37.3895C60.3809 37.0681 60.2417 36.7566 59.9633 36.4616H55.831C55.662 36.4616 55.536 36.392 55.4598 36.2495V36.1667C55.7382 35.2951 56.0795 34.3838 56.4805 33.4295C56.6031 33.2604 56.7887 33.1776 57.0372 33.1776H58.661C58.7074 33.1776 58.7537 33.1345 58.8002 33.0517V33.0086C58.8002 32.8396 58.3064 31.4345 57.3156 28.7967C56.9842 28.7139 56.1624 28.6145 54.8567 28.5018C53.4019 28.3461 52.6762 28.2069 52.6762 28.0809C52.6438 28.0331 52.6202 27.988 52.6049 27.945C52.5905 27.9046 52.5834 27.866 52.5834 27.8291V25.5558C52.6232 25.2741 52.7757 25.135 53.0473 25.135V25.1283Z" fill="white"/>
<path d="M66.8097 25.1283H71.174C71.4822 25.1846 71.6379 25.3238 71.6379 25.5492C71.6379 25.5779 71.6381 25.6166 71.6385 25.6653C71.6393 25.7561 71.6408 25.8817 71.6429 26.0419C71.6473 26.3777 71.6546 26.8659 71.6646 27.5066L71.6844 28.7503C71.6844 28.8332 71.6678 31.6698 71.6379 37.2602C71.6379 37.4558 71.8699 37.5552 72.3339 37.5552C73.0463 37.5552 73.4009 37.7938 73.4009 38.271C73.4009 38.6023 73.3843 38.8675 73.3545 39.0729C73.3843 39.3115 73.4009 39.6197 73.4009 40.0008C73.4009 40.5078 73.1391 40.7596 72.6122 40.7596H67.1345C66.6076 40.7596 66.3458 40.5641 66.3458 40.1698V38.1483C66.3458 37.754 66.7004 37.5585 67.4128 37.5585C67.8469 37.5585 68.0623 37.4458 68.0623 37.2205V28.7536C68.0623 28.472 67.8602 28.3328 67.4593 28.3328C66.717 28.3328 66.3458 28.1373 66.3458 27.7429V25.5525C66.4087 25.2708 66.5611 25.1316 66.8097 25.1316V25.1283Z" fill="white"/>
<path d="M72.7514 25.1283H77.8117C78.1894 25.1283 78.8256 25.5923 79.7138 26.5201C80.0849 26.7885 80.2705 27.0106 80.2705 27.1928V33.2604C80.2705 33.5057 79.5878 34.1651 78.2292 35.2388C78.08 35.3217 77.8481 35.3647 77.5333 35.3647H72.8906C72.3968 35.3647 72.1483 35.1825 72.1483 34.818V32.7534C72.1483 32.3028 72.3173 32.0807 72.6586 32.0807H76.2806C76.5192 32.0807 76.6584 32.0244 76.6982 31.9117V28.6675C76.6982 28.4985 76.6054 28.4156 76.4198 28.4156H72.8906C72.3968 28.4156 72.1483 28.2201 72.1483 27.8258V25.8043C72.1483 25.3537 72.3505 25.1316 72.7514 25.1316V25.1283Z" fill="white"/>
<path d="M73.8681 35.8287H77.0694C77.4471 35.8287 77.911 36.2495 78.4611 37.0912C78.5937 37.3994 78.9483 37.5552 79.5282 37.5552C80.2406 37.5552 80.5952 37.7109 80.5952 38.0191V38.3969L80.6416 40.1665C80.6416 40.5608 80.3467 40.7563 79.7601 40.7563H77.6724C77.1157 40.7563 76.7578 40.5741 76.6054 40.2096C74.5475 37.5916 73.5103 36.2296 73.497 36.1236V36.0408C73.5732 35.9016 73.6991 35.8287 73.8681 35.8287Z" fill="white"/>
<path d="M87.826 25.1283H82.3483C81.8545 25.1283 81.606 25.2841 81.606 25.5923V27.8258C81.606 27.9815 81.7286 28.1207 81.9772 28.2466C84.4757 28.472 85.8245 28.6112 86.0167 28.6675L89.5459 36.8394C89.5459 37.0912 89.8243 37.2172 90.381 37.2172H91.68C92.1672 37.2172 92.5383 36.7002 92.7935 35.6597C92.482 34.861 91.1829 31.8421 88.8931 26.603C88.5982 25.6188 88.2436 25.1283 87.826 25.1283Z" fill="white"/>
<path d="M85.7814 29.5523C85.7814 29.1314 85.1021 28.9193 83.7401 28.9193H83.7367C83.4584 28.9193 83.3192 29.0883 83.3192 29.4264V37.3895C83.3192 37.4723 83.1966 37.5154 82.9481 37.5154C82.0501 37.5154 81.6027 37.7275 81.6027 38.1483V40.2957C81.6027 40.6039 81.8645 40.7596 82.3914 40.7596H86.3381C86.7391 40.7596 86.9413 40.5078 86.9413 40.0008V32.6275C86.9413 32.2199 86.5535 31.1959 85.7814 29.5523Z" fill="white"/>
<path d="M99.7558 25.1283H94.0461V25.1316C93.8208 25.1316 93.6352 25.2145 93.4894 25.3835C92.0346 28.641 91.3089 30.3542 91.3089 30.5232V30.6491C91.3089 30.732 91.4314 31.0269 91.68 31.534C92.4853 33.5554 92.9492 34.5661 93.0719 34.5661H93.1646C93.2176 34.5661 93.3104 34.4667 93.443 34.2712C94.3377 32.0741 95.143 30.2051 95.8554 28.6675C96.4121 28.5846 97.7742 28.4421 99.9414 28.2466C100.157 28.2466 100.266 27.8954 100.266 27.1928V26.0131C100.266 25.4233 100.097 25.1283 99.7558 25.1283Z" fill="white"/>
<path d="M98.2248 28.9193H98.1751C97.2306 28.9193 96.5977 29.0022 96.273 29.1712C95.3749 30.954 94.9275 32.094 94.9275 32.5844V40.2924C94.9275 40.6006 95.1761 40.7563 95.6698 40.7563H99.7558C100.097 40.7563 100.266 40.4614 100.266 39.8715V38.5659C100.266 38.3903 100.25 38.1782 100.22 37.933C100.22 37.6513 99.726 37.5121 98.7351 37.5121C98.6849 37.4836 98.6447 37.4573 98.6148 37.4332C98.5715 37.3986 98.5495 37.3685 98.5495 37.3431V29.6351C98.5198 29.1579 98.4104 28.9193 98.2248 28.9193Z" fill="white"/>
<path d="M105.847 28.8763C107.673 29.032 108.584 29.201 108.584 29.3833C108.706 29.5722 108.769 29.7412 108.769 29.8903V29.9731C108.769 30.1289 107.934 32.4022 106.264 36.7963C106.171 37.0979 106.125 37.2801 106.125 37.3431C106.125 37.4491 106.45 37.5618 107.099 37.6811C107.192 37.7872 107.238 37.8832 107.238 37.976V40.3355C107.238 40.6172 106.96 40.7563 106.403 40.7563H101.529C101.035 40.7563 100.786 40.6172 100.786 40.3355V38.0191C100.786 37.7308 101.187 37.5618 101.993 37.5121C102.324 37.5121 102.556 37.1476 102.689 36.4152C103.245 34.9903 104.143 32.5612 105.379 29.1281C105.572 28.9591 105.727 28.8763 105.843 28.8763H105.847Z" fill="white"/>
<path d="M104.733 25.1283H110.675C111.232 25.1283 111.51 25.2675 111.51 25.5492L115.874 37.3862C115.874 37.469 116.292 37.5552 117.127 37.638C117.342 37.7772 117.452 37.9462 117.452 38.145C117.422 38.9039 117.405 39.507 117.405 39.9577V40.4216C117.405 40.5774 117.312 40.6901 117.127 40.7596H111.464C111.122 40.7596 110.953 40.6337 110.953 40.3819V38.0224C110.953 37.7474 111.295 37.5817 111.974 37.5154L112.067 37.3895C112.067 37.0681 111.928 36.7566 111.649 36.4616H107.517C107.348 36.4616 107.222 36.392 107.146 36.2495V36.1667C107.424 35.2951 107.765 34.3838 108.166 33.4295C108.289 33.2604 108.474 33.1776 108.723 33.1776H110.347C110.393 33.1776 110.44 33.1345 110.486 33.0517V33.0086C110.486 32.8396 109.992 31.4345 109.001 28.7967C108.67 28.7139 107.848 28.6145 106.543 28.5018C105.088 28.3461 104.362 28.2069 104.362 28.0809C104.299 27.9882 104.269 27.9053 104.269 27.8291V25.5558C104.309 25.2741 104.461 25.135 104.733 25.135V25.1283Z" fill="white"/>
</svg>
