<svg width="24" height="25" viewBox="0 0 24 25" fill="none" xmlns="http://www.w3.org/2000/svg">
<path d="M15.8188 13.8286L10.4947 19.8182C9.69911 20.7133 8.30063 20.7133 7.50505 19.8182L2.18096 13.8286C1.50739 13.0709 1.50739 11.9289 2.18096 11.1712L7.50505 5.18153C8.30063 4.2865 9.69911 4.2865 10.4947 5.18153L15.8188 11.1712C16.4924 11.9289 16.4924 13.0709 15.8188 13.8286Z" stroke="#9D9AAD" stroke-width="1.5" stroke-linecap="round" stroke-linejoin="round"/>
<path d="M12 6.87486L13.5052 5.18153C14.3008 4.2865 15.6992 4.2865 16.4948 5.18153L21.8189 11.1712C22.4925 11.9289 22.4925 13.0709 21.8189 13.8286L16.4948 19.8182C15.6992 20.7133 14.3008 20.7133 13.5052 19.8182L12 18.1249" stroke="#9D9AAD" stroke-width="1.5" stroke-linecap="round" stroke-linejoin="round"/>
</svg>
