<svg width="40" height="40" viewBox="0 0 40 40" fill="none" xmlns="http://www.w3.org/2000/svg">
<rect width="40" height="40" rx="8" fill="#FEF4EE"/>
<path d="M23.8188 21.3286L18.4947 27.3182C17.6991 28.2133 16.3006 28.2133 15.505 27.3182L10.181 21.3286C9.50739 20.5709 9.50739 19.4289 10.181 18.6712L15.505 12.6815C16.3006 11.7865 17.6991 11.7865 18.4947 12.6815L23.8188 18.6712C24.4924 19.4289 24.4924 20.5709 23.8188 21.3286Z" stroke="#90231C" stroke-width="1.5" stroke-linecap="round" stroke-linejoin="round"/>
<path d="M20 14.3749L21.5052 12.6815C22.3008 11.7865 23.6992 11.7865 24.4948 12.6815L29.8189 18.6712C30.4925 19.4289 30.4925 20.5709 29.8189 21.3286L24.4948 27.3182C23.6992 28.2133 22.3008 28.2133 21.5052 27.3182L20 25.6249" stroke="#90231C" stroke-width="1.5" stroke-linecap="round" stroke-linejoin="round"/>
</svg>
