<svg width="47" height="60" viewBox="0 0 47 60" fill="none" xmlns="http://www.w3.org/2000/svg">
<g clip-path="url(#clip0_50_766)">
<path d="M46.5091 34.798C45.2946 32.0129 44.0959 29.2433 42.913 26.4738V22.5839C42.913 22.1172 42.913 21.6505 42.8814 21.1992C42.1875 9.5609 32.8345 0.45874 21.5731 0.45874C10.3117 0.45874 0.974551 9.5609 0.249023 21.3081C0.249023 21.4949 0.249023 21.6971 0.249023 21.8838C0.249023 22.1172 0.249023 22.3506 0.249023 22.5839V55.6473C0.249023 57.6856 1.88934 59.3349 3.90819 59.3349H24.3332C26.3994 59.3349 28.0713 57.6234 28.0713 55.5228V50.7306H38.6702C41.0045 50.7306 42.8972 48.8013 42.8972 46.4207V38.7656H43.9539C44.8846 38.7656 45.752 38.2987 46.2567 37.5208C46.7929 36.7117 46.8876 35.6848 46.4933 34.798H46.5091ZM38.9699 34.8758V46.4207C38.9699 46.6541 38.8437 46.8408 38.686 46.8408H18.0244C15.7216 46.8408 13.8605 44.8181 13.8605 42.3131V39.2946H9.9174V42.3131C9.9174 46.9497 13.5608 50.7306 18.0244 50.7306H24.144V55.4295H4.16054V22.5528C4.16054 22.3661 4.16054 22.1639 4.16054 21.9772C4.16054 21.7438 4.16054 21.5104 4.16054 21.4015C4.75989 11.817 12.3936 4.31744 21.5416 4.31744C30.6895 4.31744 38.3548 11.817 38.9226 21.4015C38.9541 21.7905 38.9383 22.1794 38.9383 22.5528V27.2362L39.0961 27.594C40.1371 30.0057 41.178 32.4174 42.2348 34.8446H38.9541L38.9699 34.8758Z" fill="#212112"/>
<path d="M22.1406 11.5347L19.0019 17.1826L13.2607 20.2789L19.0019 23.3752L22.1406 29.0387L25.2635 23.3752L31.0046 20.2789L25.2635 17.1826L22.1406 11.5347Z" fill="#F3A47E"/>
</g>
<defs>
<clipPath id="clip0_50_766">
<rect width="46.9936" height="59.81" fill="white" transform="translate(0 0.0949707)"/>
</clipPath>
</defs>
</svg>
