<svg width="376" height="376" viewBox="0 0 376 376" fill="none" xmlns="http://www.w3.org/2000/svg">
<g opacity="0.8">
<path d="M293.169 49.9361L292.546 48.3786L291.086 47.5415C235.269 15.457 135.9 15.4959 82.5949 47.5999L81.2321 48.4176L80.6285 49.8972C79.8498 51.7662 61.6271 96.3691 65.0536 156.041C68.227 211.215 91.4921 289.772 184.222 350.748L186.889 352.5L189.556 350.748C281.468 290.453 304.772 211.858 308.14 156.547C311.781 96.7195 293.948 51.8246 293.169 49.9361ZM298.386 156.352C293.636 232.436 256.139 294.483 186.869 340.858C116.977 293.957 79.2657 231.735 74.7685 155.885C71.7119 104.215 85.963 63.2333 89.0196 55.0954C139.599 25.6586 231.745 25.6781 284.719 55.1343C287.776 63.4864 301.599 104.663 298.386 156.352ZM230.888 153.159C230.888 128.376 250.24 121.776 260.169 120.024C256.996 118.739 253.005 117.804 248.41 117.804C243.154 117.804 235.619 119.089 229.603 125.222C223.003 131.939 219.635 143.25 219.888 157.968C220.278 181.097 229.759 197.84 248.099 207.73C259.507 213.882 271.111 215.615 275.608 216.082C278.081 209.074 280.222 201.909 281.974 194.569C258.748 196.244 230.888 183.492 230.888 153.159ZM210.154 158.124C209.531 120.471 229.876 108.07 248.43 108.07C262.155 108.07 274.907 114.884 277.399 123.275C277.399 123.275 283.882 104.624 269.222 93.6629C262.7 88.7763 255.614 87.2772 249.247 87.2772C241.324 87.2772 234.529 89.6134 231.336 90.7426C224.288 93.2152 218.058 97.07 211.03 97.07C210.797 97.07 210.563 97.07 210.329 97.07C200.77 96.7195 187.668 91.6771 191.834 78.1074C191.834 78.1074 201.919 89.0878 215.897 89.0878C216.91 89.0878 217.922 89.0294 218.973 88.9126C228.221 87.8418 229.311 86.7515 231.628 84.902C231.628 84.902 226.547 72.2473 216.52 68.2562C206.494 64.2457 198.161 62.8634 176.726 62.2404C155.291 61.6174 149.12 52.214 149.431 51.4547C149.431 51.4547 142.948 62.5519 158.679 67.9642C158.679 67.9642 139.95 69.7748 130.449 79.6844C121.416 89.1073 115.263 94.1497 108.235 142.919C104.03 172.161 97.3522 188.632 92.0178 197.665C102.706 239.425 125.64 276.046 160.626 307.157C135.083 272.581 105.607 211.079 150.327 146.014C150.327 146.014 97.0212 260.354 206.397 312.959C221.329 300.479 234.256 287.046 245.12 272.678C223.899 260.218 156.031 213.162 190.277 137.234C190.277 137.234 168.608 221.806 255.828 257.142C262.175 247.018 267.567 236.486 272.045 225.525C256.47 223.383 211.05 212.5 210.154 158.202V158.124Z" fill="#ECEADB"/>
<path d="M176.979 52.4866C198.998 53.1291 208.674 54.6282 220.102 59.1838C230.654 63.4086 236.826 73.4739 239.357 78.4774C242.336 77.9323 245.684 77.5429 249.247 77.5429C258.981 77.5429 267.664 80.3464 275.062 85.8755C279.209 88.971 282.208 92.5533 284.291 96.3108C281.565 80.6968 278.08 68.8598 275.997 62.5909C252.596 50.6176 220.355 43.823 186.441 43.823C176.395 43.823 166.583 44.4071 157.121 45.5168C157.549 46.0814 157.939 46.6849 158.231 47.3274C160.002 48.9627 165.707 52.1362 176.96 52.4671L176.979 52.4866ZM122.544 73.7854L123.382 72.9093C127.898 68.1979 133.739 64.9661 139.307 62.7466C137.204 56.4777 138.898 50.968 140.125 48.2035C124.024 51.3769 109.539 56.2051 97.7218 62.4935C93.3802 75.1288 82.6919 111.535 85.4954 156.08C86.06 164.958 87.0918 173.66 88.6104 182.148C92.1342 173.29 95.8528 160.285 98.5589 141.478C105.451 93.5072 111.837 84.9021 122.525 73.7854H122.544ZM261.434 133.262C234.704 130.595 232.29 170.584 256.509 179.987C270.079 185.263 278.976 185.147 284.213 184.037C285.887 175.081 287.055 165.912 287.678 156.489C288.379 145.898 288.321 135.754 287.776 126.273C286.491 137.156 284.135 144.671 284.135 144.671C284.135 144.671 275.355 134.645 261.473 133.262H261.434Z" fill="#AEAB6D"/>
</g>
</svg>
